<?xml version="1.0" encoding="UTF-8" standalone="no"?>
<svg
   xmlns:dc="http://purl.org/dc/elements/1.1/"
   xmlns:cc="http://creativecommons.org/ns#"
   xmlns:rdf="http://www.w3.org/1999/02/22-rdf-syntax-ns#"
   xmlns:svg="http://www.w3.org/2000/svg"
   xmlns="http://www.w3.org/2000/svg"
   xmlns:sodipodi="http://sodipodi.sourceforge.net/DTD/sodipodi-0.dtd"
   xmlns:inkscape="http://www.inkscape.org/namespaces/inkscape"
   inkscape:export-ydpi="22.5"
   inkscape:export-xdpi="22.5"
   inkscape:export-filename="spell-check.png"
   inkscape:version="1.0beta2 (998e94e, 2020-02-11)"
   sodipodi:docname="spell-check logo.svg"
   id="svg28"
   preserveAspectRatio="xMidYMid meet"
   viewBox="0 0 1280 1280"
   height="1280pt"
   width="1280pt"
   version="1.0">
  <defs
     id="defs32">
    <rect
       id="rect46"
       height="192"
       width="304.48486"
       y="331.63638"
       x="395.63638" />
    <rect
       id="rect36"
       height="475.15152"
       width="482.90909"
       y="422.78787"
       x="318.06061" />
  </defs>
  <sodipodi:namedview
     inkscape:current-layer="svg28"
     inkscape:window-maximized="1"
     inkscape:window-y="-8"
     inkscape:window-x="-8"
     inkscape:cy="1110.7439"
     inkscape:cx="70.15755"
     inkscape:zoom="0.27345145"
     showgrid="false"
     id="namedview30"
     inkscape:window-height="822"
     inkscape:window-width="1600"
     inkscape:pageshadow="2"
     inkscape:pageopacity="0"
     guidetolerance="10"
     gridtolerance="10"
     objecttolerance="10"
     borderopacity="1"
     bordercolor="#666666"
     pagecolor="#ffffff" />
  <metadata
     id="metadata22">
Created by potrace 1.15, written by Peter Selinger 2001-2017
<rdf:RDF>
  <cc:Work
     rdf:about="">
    <dc:format>image/svg+xml</dc:format>
    <dc:type
       rdf:resource="http://purl.org/dc/dcmitype/StillImage" />
    <dc:title></dc:title>
  </cc:Work>
</rdf:RDF>
</metadata>
  <g
     transform="translate(146.60121,-0.08090503)"
     id="g58">
    <g
       transform="matrix(0.1,0,0,-0.1,49.5,1280)"
       fill="#000000"
       stroke="none"
       id="g26">
      <path
         d="m 6360,12769 c -418,-109 -1503,-469 -2680,-889 -157,-56 -397,-141 -535,-190 C 953,10914 497,10730 425,10591 370,10483 287,9290 170,6900 146,6413 98,5262 75,4625 62,4246 48,3865 45,3780 23,3194 8,2453 4,1705 L -1,835 228,590 C 454,349 547,262 685,163 837,55 907,27 1079,10 c 371,-37 806,36 1031,174 108,66 395,197 855,391 346,145 722,302 900,375 105,43 341,140 525,215 376,154 1854,746 2085,835 83,32 267,104 410,160 143,56 445,171 670,257 226,85 446,173 490,195 161,81 288,186 348,289 92,157 158,866 237,2562 5,119 15,314 20,432 6,118 15,313 20,433 13,276 28,589 40,860 6,116 15,309 20,427 6,118 15,312 20,430 6,118 15,312 20,430 6,118 14,311 20,428 89,1899 102,2330 79,2632 -17,235 -50,347 -120,410 -53,47 -116,62 -299,70 -187,7 -326,26 -480,65 -355,89 -646,229 -907,437 -168,134 -301,212 -437,258 -94,32 -125,31 -266,-6 z m 414,-269 c 65,-24 14,-72 -179,-165 -196,-95 -419,-183 -1127,-444 -76,-28 -199,-73 -273,-101 -74,-27 -195,-72 -267,-99 -73,-27 -194,-72 -268,-99 -74,-28 -216,-80 -315,-117 -189,-70 -1071,-397 -1335,-495 -161,-60 -275,-102 -915,-340 -1152,-428 -1129,-421 -1206,-400 -73,20 -147,112 -163,201 -11,64 5,86 96,129 249,115 1530,558 2808,970 190,62 426,138 525,170 99,32 281,91 405,130 124,39 335,107 470,150 135,43 459,146 720,228 261,83 543,171 625,197 303,96 346,105 399,85 z m 358,-267 c 10,-9 18,-30 18,-49 0,-28 -7,-39 -42,-64 -159,-116 -969,-463 -2088,-897 -135,-52 -312,-121 -395,-153 -1258,-489 -2471,-924 -2860,-1026 -154,-40 -267,-50 -272,-24 -7,34 55,75 223,147 465,198 2037,818 3569,1408 176,68 520,201 765,295 356,138 887,342 970,373 32,12 94,7 112,-10 z m 789,-422 c 10,-13 19,-27 19,-33 0,-52 -1668,-640 -3570,-1256 -713,-232 -1357,-415 -1526,-435 -52,-6 -73,5 -54,28 41,50 218,123 1090,452 2077,783 3159,1150 3700,1254 64,12 132,17 208,16 106,-2 115,-4 133,-26 z m 606,-710 c -7,-354 -16,-604 -42,-1211 -16,-366 -22,-475 -85,-1735 -22,-440 -49,-980 -60,-1200 C 8221,4580 8118,3122 8062,3033 8045,3006 7588,2812 6756,2479 6148,2235 5270,1891 4420,1565 3729,1300 2986,1023 2798,961 c -54,-18 -106,-30 -116,-27 -52,17 -61,118 -33,386 53,517 83,1014 216,3540 159,3010 213,3922 265,4465 45,459 53,530 59,536 3,4 303,98 666,209 363,111 980,300 1370,420 391,120 800,245 910,279 110,33 313,94 450,136 962,293 1915,562 1939,548 6,-4 7,-140 3,-352 z M 804,9969 c 50,-17 183,-72 296,-122 356,-156 469,-184 719,-174 207,8 605,64 763,108 40,11 89,22 110,26 33,5 38,3 53,-28 42,-81 40,-389 -10,-1339 -26,-489 -69,-989 -95,-1103 -5,-22 -17,-45 -27,-51 -58,-34 -271,-110 -423,-150 -362,-95 -808,-113 -1085,-45 -105,26 -268,106 -331,163 -171,153 -204,439 -174,1526 15,565 40,1094 56,1188 7,42 27,42 148,1 z M 953,6809 c 111,-49 214,-83 342,-111 88,-20 129,-22 350,-22 272,-1 302,2 744,75 134,21 246,37 249,34 10,-10 -116,-2322 -153,-2790 -50,-644 -92,-834 -201,-897 -113,-66 -673,-86 -1146,-43 -212,20 -353,47 -427,83 -72,35 -180,141 -216,212 -25,50 -28,68 -38,245 -18,314 7,1357 73,3060 5,143 10,281 10,308 v 47 l 162,-81 c 90,-45 202,-99 251,-120 z M 677,2776 c 59,-18 167,-54 238,-79 204,-72 294,-87 550,-94 201,-5 614,15 878,43 l 57,6 -2,-993 -3,-993 -150,-43 C 1668,457 1387,402 1170,413 888,427 587,577 450,772 c -86,123 -85,113 -85,668 1,471 10,706 41,1050 16,181 31,285 46,314 9,16 18,18 64,12 29,-3 102,-21 161,-40 z"
         id="path24"
         inkscape:connector-curvature="0" />
    </g>
    <text
       xml:space="preserve"
       id="text34"
       style="font-style:normal;font-weight:normal;font-size:150px;line-height:1.25;font-family:sans-serif;white-space:pre;shape-inside:url(#rect36);fill:#000000;fill-opacity:1;stroke:none;"
       transform="matrix(1.1475657,-0.35084605,0.35084605,1.1475657,-205.53443,263.9795)"><tspan
         sodipodi:role="line"
         x="318.06055"
         y="564.6833"><tspan
           style="font-style:normal;font-variant:normal;font-weight:normal;font-stretch:normal;font-family:'Gill Sans Ultra Bold';-inkscape-font-specification:'Gill Sans Ultra Bold, '">A...Z</tspan></tspan></text>
    <text
       xml:space="preserve"
       style="font-style:normal;font-weight:normal;font-size:360px;line-height:1.25;font-family:sans-serif;fill:#000000;fill-opacity:1;stroke:none;stroke-width:9"
       x="439.00555"
       y="1025.9341"
       id="text42"><tspan
         sodipodi:role="line"
         id="tspan40"
         x="439.00555"
         y="1025.9341"
         style="stroke-width:9">✔</tspan></text>
    <text
       xml:space="preserve"
       id="text44"
       style="font-style:normal;font-weight:normal;font-size:30px;line-height:1.25;font-family:sans-serif;white-space:pre;shape-inside:url(#rect46);fill:#000000;fill-opacity:1;stroke:none;"
       transform="matrix(11.412678,-3.7082039,3.7082039,11.412678,-5424.053,-2029.2825)"><tspan
         sodipodi:role="line"
         x="395.63672"
         y="359.00663"><tspan>👓</tspan></tspan></text>
  </g>
</svg>
