<?xml version="1.0" encoding="UTF-8" standalone="no"?>
<svg
   xmlns:dc="http://purl.org/dc/elements/1.1/"
   xmlns:cc="http://creativecommons.org/ns#"
   xmlns:rdf="http://www.w3.org/1999/02/22-rdf-syntax-ns#"
   xmlns:svg="http://www.w3.org/2000/svg"
   xmlns="http://www.w3.org/2000/svg"
   xmlns:sodipodi="http://sodipodi.sourceforge.net/DTD/sodipodi-0.dtd"
   xmlns:inkscape="http://www.inkscape.org/namespaces/inkscape"
   version="1.0"
   width="1280pt"
   height="1280pt"
   viewBox="0 0 1280 1280"
   preserveAspectRatio="xMidYMid meet"
   id="svg28"
   sodipodi:docname="spell-check-logo.svg"
   inkscape:version="1.0beta2 (998e94e, 2020-02-11)"
   inkscape:export-filename="spell-check.png"
   inkscape:export-xdpi="1.8"
   inkscape:export-ydpi="1.8">
  <defs
     id="defs32">
    <rect
       x="395.63638"
       y="331.63638"
       width="304.48486"
       height="192"
       id="rect46" />
    <rect
       x="318.06061"
       y="422.78787"
       width="482.90909"
       height="475.15152"
       id="rect36" />
  </defs>
  <sodipodi:namedview
     inkscape:document-rotation="0"
     pagecolor="#ffffff"
     bordercolor="#666666"
     borderopacity="1"
     objecttolerance="10"
     gridtolerance="10"
     guidetolerance="10"
     inkscape:pageopacity="0"
     inkscape:pageshadow="2"
     inkscape:window-width="1600"
     inkscape:window-height="822"
     id="namedview30"
     showgrid="false"
     inkscape:zoom="0.13672573"
     inkscape:cx="642.51626"
     inkscape:cy="677.94456"
     inkscape:window-x="-8"
     inkscape:window-y="-8"
     inkscape:window-maximized="1"
     inkscape:current-layer="svg28" />
  <metadata
     id="metadata22">
Created by potrace 1.15, written by Peter Selinger 2001-2017
<rdf:RDF>
  <cc:Work
     rdf:about="">
    <dc:format>image/svg+xml</dc:format>
    <dc:type
       rdf:resource="http://purl.org/dc/dcmitype/StillImage" />
    <dc:title></dc:title>
  </cc:Work>
</rdf:RDF>
</metadata>
  <g
     id="g58"
     transform="translate(146.60121,-0.08090503)">
    <g
       id="g26"
       stroke="none"
       fill="#000000"
       transform="matrix(0.1,0,0,-0.1,49.5,1280)">
      <path
         inkscape:connector-curvature="0"
         id="path24"
         d="m 6360,12769 c -418,-109 -1503,-469 -2680,-889 -157,-56 -397,-141 -535,-190 C 953,10914 497,10730 425,10591 370,10483 287,9290 170,6900 146,6413 98,5262 75,4625 62,4246 48,3865 45,3780 23,3194 8,2453 4,1705 L -1,835 228,590 C 454,349 547,262 685,163 837,55 907,27 1079,10 c 371,-37 806,36 1031,174 108,66 395,197 855,391 346,145 722,302 900,375 105,43 341,140 525,215 376,154 1854,746 2085,835 83,32 267,104 410,160 143,56 445,171 670,257 226,85 446,173 490,195 161,81 288,186 348,289 92,157 158,866 237,2562 5,119 15,314 20,432 6,118 15,313 20,433 13,276 28,589 40,860 6,116 15,309 20,427 6,118 15,312 20,430 6,118 15,312 20,430 6,118 14,311 20,428 89,1899 102,2330 79,2632 -17,235 -50,347 -120,410 -53,47 -116,62 -299,70 -187,7 -326,26 -480,65 -355,89 -646,229 -907,437 -168,134 -301,212 -437,258 -94,32 -125,31 -266,-6 z m 414,-269 c 65,-24 14,-72 -179,-165 -196,-95 -419,-183 -1127,-444 -76,-28 -199,-73 -273,-101 -74,-27 -195,-72 -267,-99 -73,-27 -194,-72 -268,-99 -74,-28 -216,-80 -315,-117 -189,-70 -1071,-397 -1335,-495 -161,-60 -275,-102 -915,-340 -1152,-428 -1129,-421 -1206,-400 -73,20 -147,112 -163,201 -11,64 5,86 96,129 249,115 1530,558 2808,970 190,62 426,138 525,170 99,32 281,91 405,130 124,39 335,107 470,150 135,43 459,146 720,228 261,83 543,171 625,197 303,96 346,105 399,85 z m 358,-267 c 10,-9 18,-30 18,-49 0,-28 -7,-39 -42,-64 -159,-116 -969,-463 -2088,-897 -135,-52 -312,-121 -395,-153 -1258,-489 -2471,-924 -2860,-1026 -154,-40 -267,-50 -272,-24 -7,34 55,75 223,147 465,198 2037,818 3569,1408 176,68 520,201 765,295 356,138 887,342 970,373 32,12 94,7 112,-10 z m 789,-422 c 10,-13 19,-27 19,-33 0,-52 -1668,-640 -3570,-1256 -713,-232 -1357,-415 -1526,-435 -52,-6 -73,5 -54,28 41,50 218,123 1090,452 2077,783 3159,1150 3700,1254 64,12 132,17 208,16 106,-2 115,-4 133,-26 z m 606,-710 c -7,-354 -16,-604 -42,-1211 -16,-366 -22,-475 -85,-1735 -22,-440 -49,-980 -60,-1200 C 8221,4580 8118,3122 8062,3033 8045,3006 7588,2812 6756,2479 6148,2235 5270,1891 4420,1565 3729,1300 2986,1023 2798,961 c -54,-18 -106,-30 -116,-27 -52,17 -61,118 -33,386 53,517 83,1014 216,3540 159,3010 213,3922 265,4465 45,459 53,530 59,536 3,4 303,98 666,209 363,111 980,300 1370,420 391,120 800,245 910,279 110,33 313,94 450,136 962,293 1915,562 1939,548 6,-4 7,-140 3,-352 z M 804,9969 c 50,-17 183,-72 296,-122 356,-156 469,-184 719,-174 207,8 605,64 763,108 40,11 89,22 110,26 33,5 38,3 53,-28 42,-81 40,-389 -10,-1339 -26,-489 -69,-989 -95,-1103 -5,-22 -17,-45 -27,-51 -58,-34 -271,-110 -423,-150 -362,-95 -808,-113 -1085,-45 -105,26 -268,106 -331,163 -171,153 -204,439 -174,1526 15,565 40,1094 56,1188 7,42 27,42 148,1 z M 953,6809 c 111,-49 214,-83 342,-111 88,-20 129,-22 350,-22 272,-1 302,2 744,75 134,21 246,37 249,34 10,-10 -116,-2322 -153,-2790 -50,-644 -92,-834 -201,-897 -113,-66 -673,-86 -1146,-43 -212,20 -353,47 -427,83 -72,35 -180,141 -216,212 -25,50 -28,68 -38,245 -18,314 7,1357 73,3060 5,143 10,281 10,308 v 47 l 162,-81 c 90,-45 202,-99 251,-120 z M 677,2776 c 59,-18 167,-54 238,-79 204,-72 294,-87 550,-94 201,-5 614,15 878,43 l 57,6 -2,-993 -3,-993 -150,-43 C 1668,457 1387,402 1170,413 888,427 587,577 450,772 c -86,123 -85,113 -85,668 1,471 10,706 41,1050 16,181 31,285 46,314 9,16 18,18 64,12 29,-3 102,-21 161,-40 z" />
    </g>
    <text
       transform="matrix(1.1475657,-0.35084605,0.35084605,1.1475657,-205.53443,263.9795)"
       style="font-style:normal;font-weight:normal;font-size:150px;line-height:1.25;font-family:sans-serif;white-space:pre;shape-inside:url(#rect36);fill:#000000;fill-opacity:1;stroke:none;"
       id="text34"
       xml:space="preserve"><tspan
         sodipodi:role="line"
         x="318.06055"
         y="564.6833"><tspan
           style="font-style:normal;font-variant:normal;font-weight:normal;font-stretch:normal;font-family:'Gill Sans Ultra Bold';-inkscape-font-specification:'Gill Sans Ultra Bold, '">A...Z</tspan></tspan></text>
    <text
       id="text42"
       y="1025.9341"
       x="439.00555"
       style="font-style:normal;font-weight:normal;font-size:360px;line-height:1.25;font-family:sans-serif;fill:#000000;fill-opacity:1;stroke:none;stroke-width:9"
       xml:space="preserve"><tspan
         style="stroke-width:9"
         y="1025.9341"
         x="439.00555"
         id="tspan40"
         sodipodi:role="line">✔</tspan></text>
    <text
       transform="matrix(11.412678,-3.7082039,3.7082039,11.412678,-5424.053,-2029.2825)"
       style="font-style:normal;font-weight:normal;font-size:30px;line-height:1.25;font-family:sans-serif;white-space:pre;shape-inside:url(#rect46);fill:#000000;fill-opacity:1;stroke:none;"
       id="text44"
       xml:space="preserve"><tspan
         sodipodi:role="line"
         x="395.63672"
         y="359.00663"><tspan>👓</tspan></tspan></text>
  </g>
  <path
     transform="scale(0.75000002)"
     inkscape:connector-curvature="0"
     id="path37"
     d="M 369.13406,329.33746 C 351.24348,308.0757 355.45681,304.3038 426.11007,278.33073 541.86986,235.77593 1115.7034,49.001963 1151.0723,42.366717 c 22.5811,-4.236241 14.9857,4.574613 -17.0452,19.772932 -32.7319,15.530896 -58.0791,25.122869 -448.8914,169.870661 -277.37058,102.73163 -293.60647,108.5786 -301.50161,108.5786 -2.76791,0 -9.29292,-5.06316 -14.50003,-11.25145 z"
     style="fill:#ffe6d5;stroke-width:3.65696" />
  <path
     transform="scale(0.75000002)"
     inkscape:connector-curvature="0"
     id="path39"
     d="m 467.9993,364.87346 c 19.7817,-14.69074 733.4343,-293.521877 740.3358,-289.256522 8.2233,5.082279 1.6997,12.623446 -21.2821,24.601822 -104.5538,54.49453 -649.85191,260.86839 -708.53533,268.1527 -17.26604,2.14322 -17.85207,1.94833 -10.51837,-3.498 z"
     style="fill:#ffe6d5;stroke-width:3.65696" />
  <path
     transform="scale(0.75000002)"
     inkscape:connector-curvature="0"
     id="path41"
     d="m 646.73766,352.627 c 32.44491,-17.60775 363.39444,-140.05626 490.03214,-181.30773 106.0119,-34.53273 152.4291,-45.21983 171.8769,-39.57289 l 10.9709,3.18554 -14.6278,6.49136 c -91.5687,40.63524 -631.13174,217.88051 -661.50832,217.30399 -6.58445,-0.12497 -6.1074,-1.01868 3.25618,-6.10027 z"
     style="fill:#ffe6d5;stroke-width:3.65696" />
  <path
     transform="scale(0.75000002)"
     inkscape:connector-curvature="0"
     id="path47"
     d="m 616.15876,1573.9663 c -1.22677,-3.197 -1.1508,-19.2419 0.16884,-35.6553 7.46721,-92.8763 14.72698,-212.5932 27.86672,-459.5351 24.1603,-454.05673 34.99385,-626.52862 42.2804,-673.11088 l 2.03823,-13.03023 229.26802,-70.19368 c 348.60833,-106.73142 473.94693,-143.0042 478.47983,-138.47126 7.0613,7.06123 -38.8422,913.64175 -53.7322,1061.19755 -5.7986,57.4623 -4.2822,54.2898 -32.0218,66.9913 -89.6214,41.0362 -672.48419,267.6202 -688.42408,267.6202 -2.0314,0 -4.69718,-2.6157 -5.92396,-5.8126 z m 318.78677,-205.746 c 24.85302,-15.2723 176.92657,-167.3602 251.41577,-251.4394 l 21.0275,-23.7346 v -30.8358 c 0,-29.0837 -0.4757,-30.9551 -8.3709,-32.9367 -22.0334,-5.53 -47.4428,15.0351 -155.9721,126.2364 -48.29595,49.485 -88.55219,87.8287 -92.20945,87.8287 -9.47016,0 -12.88467,-8.7819 -22.78362,-58.5981 -4.8943,-24.6305 -11.10535,-46.2778 -13.80232,-48.1052 -7.58561,-5.1399 -35.73217,-0.9524 -46.46209,6.9123 -5.30138,3.8858 -15.15995,15.1747 -21.90794,25.0866 l -12.26907,18.0216 2.18074,42.055 c 3.07408,59.2827 7.44373,91.5039 14.13417,104.2232 6.16755,11.7253 25.46332,31.1891 37.47887,37.8053 11.30393,6.2244 35.38868,4.9481 47.54044,-2.5193 z m -220.90322,-311.6701 36.22692,-11.2549 v -15.8161 -15.8162 l 26.38117,-8.013 26.38117,-8.01304 10.22628,12.74734 10.22629,12.7474 35.61743,-10.933 c 19.58959,-6.0132 36.96328,-12.20048 38.6082,-13.74957 4.48262,-4.22155 -106.41839,-153.7587 -113.85936,-153.52615 -3.3847,0.10579 -28.37001,7.14631 -55.52291,15.64559 l -49.36891,15.45324 -2.34169,45.60842 c -5.84095,113.76257 -6.42637,146.17477 -2.64017,146.17477 2.11126,0 20.14078,-5.0647 40.06558,-11.2548 z m 245.46871,-74.20052 c 3.58642,-2.23978 9.17829,-9.67262 12.42636,-16.51742 11.57179,-24.38575 -7.2365,-55.27639 -33.656,-55.27639 -25.71519,0 -41.73389,15.75995 -41.73389,41.05968 0,30.35505 35.68144,47.77207 62.96353,30.73413 z m 98.85678,-35.05614 c 15.1609,-16.96652 14.103,-37.07963 -2.8415,-54.02414 -11.8292,-11.82923 -14.266,-12.74394 -29.404,-11.03764 -19.2414,2.16879 -28.95948,9.72604 -34.6399,26.93783 -13.43888,40.72021 38.2426,70.17809 66.8854,38.12395 z m 90.6897,-24.1012 c 20.2616,-18.33653 15.4861,-54.56848 -8.7134,-66.10841 -27.2167,-12.97876 -57.2918,5.83186 -57.2918,35.83345 0,11.9603 2.4131,17.12604 12.8981,27.61105 11.8292,11.82923 14.266,12.74394 29.404,11.03764 9.0783,-1.02325 19.7446,-4.79142 23.7031,-8.37373 z m 144.2697,-43.69156 c 38.2152,-11.66379 70.0613,-21.68356 70.769,-22.26615 1.739,-1.43148 -10.6207,-39.15481 -14.0681,-42.93775 -1.507,-1.65364 -16.9995,1.43923 -34.4277,6.87307 -17.4282,5.43387 -32.7119,8.8555 -33.9637,7.60369 -1.2518,-1.25181 6.0597,-34.37744 16.248,-73.61256 12.8438,-49.46227 17.1271,-71.3365 13.9685,-71.3365 -4.1016,0 -174.5147,50.95636 -176.6769,52.82931 -1.4888,1.28969 10.5014,40.20439 13.2994,43.16338 1.4251,1.50714 17.0182,-1.53793 34.6513,-6.76687 17.6332,-5.22893 32.6961,-8.87137 33.4732,-8.09427 0.7771,0.77707 -6.728,32.62071 -16.6778,70.7636 -9.9499,38.1429 -18.1001,71.25689 -18.1115,73.58667 -0.015,2.9554 6.3358,2.29598 21.0067,-2.18141 11.5651,-3.52955 52.2944,-15.96042 90.5096,-27.62421 z M 966.62421,753.01562 c 19.82494,-5.14435 46.72439,-25.2082 60.39789,-45.04972 11.137,-16.16082 15.8298,-28.18738 21.1925,-54.31121 2.6589,-12.9525 7.1232,-12.67201 23.2171,1.45872 36.3376,31.90479 87.7536,39.66386 131.3767,19.82572 54.489,-24.77965 80.578,-81.05205 65.2734,-140.7915 -5.8848,-22.97062 -5.8519,-23.54302 1.8217,-31.71112 10.9475,-11.65312 13.2378,-36.90195 4.9346,-54.39964 -7.3096,-15.40395 -24.2335,-27.47886 -38.5425,-27.49947 -6.668,-0.01 -28.9374,-15.36158 -74.8657,-51.61043 -35.956,-28.37821 -69.2302,-53.06267 -73.9426,-54.85434 -12.9178,-4.91133 -23.1634,-4.01214 -50.5035,4.43236 -44.58888,13.77209 -61.55624,42.47564 -45.95581,77.74299 9.23531,20.87803 24.34741,29.31186 51.31121,28.63598 19.9254,-0.49944 22.2471,0.68548 56.5785,28.87567 1.6863,1.3847 -10.6559,7.06477 -27.4272,12.62237 -21.9114,7.26092 -33.7678,13.54964 -42.1286,22.3453 -15.5396,16.3479 -25.4278,19.67346 -45.2773,15.2274 -13.78398,-3.08746 -20.60656,-2.23123 -45.32526,5.68826 -16.00434,5.12755 -29.78303,8.63858 -30.61931,7.80229 -0.83629,-0.83629 1.41881,-12.37932 5.01134,-25.65117 5.69722,-21.04724 8.02162,-24.75311 18.19057,-29.00198 25.46892,-10.64159 36.45127,-41.75898 24.37407,-69.06149 -11.61634,-26.26068 -36.56605,-35.61857 -69.46551,-26.05443 -29.95586,8.7084 -47.33583,18.59934 -53.44673,30.41653 -2.96072,5.7254 -14.73827,43.97016 -26.17234,84.98835 -17.98504,64.51897 -22.44844,76.42972 -33.09027,88.30265 -10.52558,11.74325 -12.30106,16.38795 -12.30106,32.17997 0,10.15072 2.54834,23.38378 5.66298,29.40683 5.96286,11.53089 24.95942,25.21859 35.03191,25.2417 3.92734,0.007 8.76858,7.54035 14.22375,22.12733 23.03218,61.58746 82.50199,90.3119 150.46547,72.67608 z"
     style="fill:#ffffff;stroke-width:3.65696" />
  <path
     transform="scale(0.75000002)"
     inkscape:connector-curvature="0"
     id="path49"
     d="m 753.92619,946.32571 c 0,-10.28722 0.47797,-18.01836 1.06216,-17.18031 0.58419,0.83805 5.49024,7.54461 10.90234,14.90347 l 9.84017,13.37973 -10.90233,3.80057 -10.90234,3.80058 z"
     style="fill:#ffffff;stroke-width:3.65696" />
  <path
     transform="scale(0.75000002)"
     inkscape:connector-curvature="0"
     id="path51"
     d="m 896.54749,714.75848 c -26.3013,-11.79234 -39.72797,-30.34667 -54.51765,-75.33802 l -7.98496,-24.29085 -12.48633,3.83217 c -23.01052,7.06212 -31.90826,-10.30707 -13.65768,-26.661 8.55214,-7.66337 13.65011,-21.79234 33.42582,-92.63929 l 23.33461,-83.59679 13.20038,-5.53665 c 22.65784,-9.50341 39.31809,-10.25502 43.75009,-1.97374 5.47607,10.23213 -3.80515,22.05088 -19.65092,25.02356 -11.08641,2.07983 -13.16133,4.25853 -16.68211,17.51653 -2.2115,8.32771 -10.45452,37.99592 -18.31782,65.92936 -13.02969,46.28642 -16.18309,60.74909 -13.2456,60.74909 0.57822,0 25.6124,-8.22815 55.63151,-18.28478 58.34891,-19.54733 69.19131,-21.42243 74.01636,-12.80054 4.53624,8.10581 70.43341,-14.01913 70.43341,-23.64798 0,-10.1725 5.4087,-12.82319 63.9967,-31.36319 30.1699,-9.54718 56.2621,-18.60995 57.9826,-20.13949 4.8587,-4.31935 -107.6133,-91.94667 -114.4548,-89.1721 -3.1328,1.27053 -11.7049,3.16565 -19.0491,4.21136 -10.8243,1.54123 -14.1039,0.49845 -17.3175,-5.50618 -5.5692,-10.40617 4.0307,-20.38485 26.7446,-27.79982 21.8581,-7.13562 14.3581,-11.36651 98.7663,55.71625 53.5397,42.55024 63.9195,49.37689 74.0408,48.69526 11.411,-0.76848 19.4521,6.47196 19.4521,17.51518 0,2.98306 -15.903,12.39592 -28.1971,16.68956 -0.4235,0.14789 4.2407,15.83019 10.3647,34.84953 12.205,37.90469 12.1436,51.94548 -0.3339,76.40322 -16.1588,31.67399 -54.8144,51.07817 -87.3792,43.86233 -19.8026,-4.38794 -41.6901,-17.82537 -50.2069,-30.82368 -3.6859,-5.6254 -9.4333,-9.14928 -14.9223,-9.14928 -7.0603,0 -10.4453,-3.43152 -16.1853,-16.40772 -9.3168,-21.06227 -18.729,-26.53226 -31.385,-18.23976 -8.1204,5.32069 -9.0233,7.87934 -7.0765,20.05347 1.2272,7.67504 3.1949,16.46559 4.3726,19.53454 1.23,3.20539 -1.1009,8.35592 -5.4775,12.10328 -5.3415,4.57356 -7.6443,10.92594 -7.7042,21.25272 -0.1178,20.31542 -16.30646,48.41862 -35.72749,62.02233 -13.01514,9.11662 -19.89359,11.18108 -40.22652,12.07341 -16.45473,0.7221 -28.7393,-0.81232 -37.3262,-4.66229 z m 51.99806,-9.15309 c 15.94964,-4.42965 33.95209,-18.63073 41.07215,-32.39941 10.5968,-20.49199 10.5971,-35.23331 10e-4,-69.7744 -5.56299,-18.13495 -11.82357,-32.97264 -13.9124,-32.97264 -6.92266,0 -121.14839,37.16166 -124.70527,40.57102 -2.20045,2.10919 0.16168,14.5623 6.38973,33.68645 11.0826,34.0308 24.88241,50.82508 48.75491,59.3344 17.28636,6.16171 24.81661,6.43781 42.39941,1.55458 z m 228.74085,-74.98121 c 26.0869,-10.89979 44.4827,-37.18947 44.6499,-63.80973 0.1048,-16.68392 -17.5259,-69.49464 -23.2006,-69.49464 -5.087,0 -123.1947,39.20486 -125.7223,41.73244 -3.585,3.58504 18.5304,61.50068 27.6005,72.2799 18.8154,22.36083 50.3423,30.2935 76.6725,19.29203 z"
     style="fill:#ffffff;stroke-width:3.65696" />
  <path
     transform="scale(0.75000002)"
     inkscape:connector-curvature="0"
     id="path53"
     d="m 411.01395,758.60787 c -33.82103,-9.10545 -51.038,-21.72178 -59.26295,-43.42699 -9.08261,-23.96851 -11.43064,-87.40421 -7.52255,-203.23324 4.08896,-121.18955 5.37139,-135.30415 12.29431,-135.31264 2.35435,-0.003 26.94273,9.17616 54.64085,20.3979 48.85806,19.79455 51.3865,20.40104 84.76645,20.33258 35.85513,-0.0735 41.54791,-0.69372 94.72057,-10.31899 27.58078,-4.99265 32.89627,-5.1055 35.91687,-0.76252 6.22886,8.95578 -1.84014,210.62142 -11.76334,293.99691 -3.98182,33.45552 -4.98904,34.64663 -38.81672,45.90376 -52.43911,17.45063 -125.78461,22.97385 -164.97349,12.42323 z"
     style="fill:#008080;stroke-width:3.65696" />
  <path
     transform="scale(0.75000002)"
     inkscape:connector-curvature="0"
     id="path55"
     d="m 421.9528,1297.9218 c -55.14455,-4.2359 -75.71052,-12.7214 -90.64072,-37.3984 -6.48591,-10.72 -7.04893,-18.7378 -6.72782,-95.8091 0.37454,-89.8947 8.47825,-377.21908 10.85804,-384.98158 1.00918,-3.2918 9.22891,-0.72893 28.02241,8.73724 62.67924,31.57116 104.2904,36.66025 192.53109,23.54678 28.91412,-4.29693 53.37428,-7.00945 54.35591,-6.02782 2.65089,2.6509 -16.82005,343.50118 -22.89443,400.78038 -8.8706,83.6467 -10.68503,86.4655 -58.92182,91.5399 -36.3731,3.8264 -52.48781,3.7678 -106.58266,-0.3874 z"
     style="fill:#008080;stroke-width:3.65696" />
  <path
     transform="scale(0.75000002)"
     inkscape:connector-curvature="0"
     id="path57"
     d="m 382.74513,1641.9694 c -30.14716,-10.1055 -53.85213,-28.4352 -64.06934,-49.5411 -8.21965,-16.9796 -8.30533,-18.5445 -5.9735,-109.1047 2.40839,-93.5338 6.4406,-143.2123 12.06028,-148.588 1.72052,-1.6458 21.23015,3.0353 43.35473,10.4025 l 40.22652,13.3949 85.02423,-0.2485 85.02424,-0.2485 v 128.8726 128.8726 l -11.88511,3.844 c -82.32567,26.6266 -147.38645,34.5375 -183.76205,22.3442 z"
     style="fill:#008080;stroke-width:3.65696" />
  <path
     transform="scale(0.75000002)"
     inkscape:connector-curvature="0"
     id="path59"
     d="m 882.04674,1360.4781 c -22.12808,-12.8884 -34.41565,-47.49 -39.26413,-110.567 -4.52788,-58.9061 -4.00566,-61.8148 15.19507,-84.6336 22.05304,-26.2085 51.86111,-31.7961 57.78315,-10.8315 1.98854,7.0396 5.73961,26.4836 8.33569,43.2089 2.59608,16.7252 9.06534,36.3519 14.37614,43.6149 8.99672,12.3037 12.43539,10.8308 50.3635,-21.5722 22.38914,-19.1276 56.47824,-53.2779 75.75354,-75.8896 42.3212,-49.6464 117.5458,-113.6217 129.0925,-109.7876 4.5916,1.5246 9.0224,14.6406 9.8462,29.1466 1.4206,25.0153 -5.5532,33.5713 -135.3074,166.0061 -141.23051,144.1483 -151.58519,151.4512 -186.17426,131.305 z"
     style="fill:#00ff00;stroke-width:7.31391" />
  <path
     transform="scale(0.75000002)"
     inkscape:connector-curvature="0"
     id="path61"
     d="m 897.56126,691.77908 c -18.35735,-9.97473 -48.12415,-66.67561 -39.52022,-75.27954 3.94895,-3.94895 105.74113,-37.73321 114.27206,-37.92626 5.29537,-0.11983 21.27096,51.6779 21.27096,68.96693 0,18.43501 -40.10131,55.31737 -59.77717,54.97882 -9.3604,-0.16105 -25.67093,-4.99403 -36.24563,-10.73995 z"
     style="fill:#ff2a7f;stroke-width:7.31391" />
  <path
     transform="scale(0.75000002)"
     inkscape:connector-curvature="0"
     id="path63"
     d="m 1115.7794,614.93055 c -20.4822,-16.11136 -39.7728,-63.48315 -29.7324,-73.01392 12.9616,-12.30366 107.5749,-36.94377 114.6583,-29.8604 3.8757,3.87573 8.623,23.45127 10.5496,43.5012 3.0675,31.92443 1.1628,38.79438 -15.3277,55.28487 -22.9468,22.94677 -54.1496,24.5384 -80.1478,4.08825 z"
     style="fill:#ff2a7f;stroke-width:7.31391" />
</svg>
